name analog
datacolumns 19
datarows 32
range 0.0 0.0155
endheader
time	ground_force_vx	ground_force_vy	ground_force_vz	ground_force_px	ground_force_py	ground_force_pz	l_ground_force_vx	l_ground_force_vy	l_ground_force_vz	l_ground_force_px	l_ground_force_py	l_ground_force_pz	ground_torque_x	ground_torque_y	ground_torque_z	l_ground_torque_x	l_ground_torque_y	l_ground_torque_z
0.0	-0.0	-0.0	-0.0	3.8253326416015625	54.09144592285156	-402.80859375	-0.8549301028251648	-58.11566925048828	-382.3324279785156	-0.0	-0.0	-0.0	-0.0	-0.0	-0.0	103163.3828125	-20435.724609375	-283.3166809082031
0.0005	-0.0	-0.0	-0.0	4.014472961425781	54.02369689941406	-400.94384765625	-0.6209754943847656	-57.77302551269531	-382.19482421875	-0.0	-0.0	-0.0	-0.0	-0.0	-0.0	102994.0546875	-20020.701171875	-15.115985870361328
0.001	-0.0	-0.0	-0.0	4.09303617477417	53.83476257324219	-403.0364074707031	-0.475516527891159	-57.93902587890625	-381.80413818359375	-0.0	-0.0	-0.0	-0.0	-0.0	-0.0	102862.8515625	-19968.5078125	-89.79615783691406
0.0015	-0.0	-0.0	-0.0	3.585317850112915	53.81356048583984	-399.7156677246094	-0.3336071968078613	-58.08395385742188	-381.148193359375	-0.0	-0.0	-0.0	-0.0	-0.0	-0.0	103020.9296875	-20347.048828125	-29.19277572631836
0.002	-0.0	-0.0	-0.0	3.8723902702331534	53.431373596191406	-401.0030822753906	-0.2978778481483459	-58.45841979980469	-380.00189208984375	-0.0	-0.0	-0.0	-0.0	-0.0	-0.0	103273.4453125	-20373.099609375	141.69317626953125
0.0025	-0.0	-0.0	-0.0	4.733057975769043	53.4466552734375	-397.2245788574219	-0.3232042789459228	-58.48995590209961	-381.8058166503906	-0.0	-0.0	-0.0	-0.0	-0.0	-0.0	103075.3515625	-20602.54296875	70.37923431396484
0.003	-0.0	-0.0	-0.0	3.626124143600464	53.71415710449219	-399.0933227539063	-0.1248713135719299	-58.62467193603516	-381.1080932617188	-0.0	-0.0	-0.0	-0.0	-0.0	-0.0	102984.953125	-20335.44921875	121.24898529052734
0.0035	-0.0	-0.0	-0.0	3.1537654399871826	53.42048263549805	-397.7220458984375	-0.1410798728466034	-58.44810104370117	-380.6164855957031	-0.0	-0.0	-0.0	-0.0	-0.0	-0.0	102742.0078125	-20531.564453125	96.70531463623048
0.004	-0.0	-0.0	-0.0	3.0331573486328125	53.96091842651367	-398.5108337402344	-0.1304643154144287	-58.188419342041016	-380.2876586914063	-0.0	-0.0	-0.0	-0.0	-0.0	-0.0	102886.5546875	-20606.2421875	225.93017578125
0.0045000000000000005	-0.0	-0.0	-0.0	2.6182861328125	53.21085357666016	-398.5755920410156	-0.1670194268226623	-58.71321105957031	-380.3296203613281	-0.0	-0.0	-0.0	-0.0	-0.0	-0.0	102573.7734375	-20615.123046875	340.9365539550781
0.005	-0.0	-0.0	-0.0	2.446107625961304	53.28963088989258	-398.28912353515625	0.0783448740839958	-58.13631057739258	-380.3304748535156	-0.0	-0.0	-0.0	-0.0	-0.0	-0.0	102635.234375	-20697.53125	177.1383819580078
0.0055	-0.0	-0.0	-0.0	2.0724856853485107	53.1423454284668	-396.7699279785156	-0.1464291512966156	-58.82828521728516	-379.9582824707031	-0.0	-0.0	-0.0	-0.0	-0.0	-0.0	102381.6171875	-20795.419921875	370.58599853515625
0.006	-0.0	-0.0	-0.0	2.0312705039978027	53.55709838867188	-397.0149536132813	0.1195944994688034	-58.29231262207031	-379.7959289550781	-0.0	-0.0	-0.0	-0.0	-0.0	-0.0	102643.53125	-20787.5	404.0177612304688
0.006500000000000001	-0.0	-0.0	-0.0	1.5852909088134766	53.38911437988281	-395.6712646484375	0.1671632379293441	-58.42148971557617	-378.9506530761719	-0.0	-0.0	-0.0	-0.0	-0.0	-0.0	102459.6875	-21080.279296875	495.2205200195313
0.007	-0.0	-0.0	-0.0	1.4859380722045898	53.33059310913086	-392.3127746582031	0.0784878581762313	-58.744102478027344	-378.7088317871094	-0.0	-0.0	-0.0	-0.0	-0.0	-0.0	102609.390625	-21300.14453125	361.6139831542969
0.0075	-0.0	-0.0	-0.0	1.9320999383926392	53.18034744262695	-393.371337890625	0.5628247857093811	-58.733924865722656	-381.651123046875	-0.0	-0.0	-0.0	-0.0	-0.0	-0.0	102991.859375	-21234.505859375	440.6614685058594
0.008	-0.0	-0.0	-0.0	1.3178763389587402	53.80436706542969	-393.98822021484375	0.4537043869495392	-59.43039321899414	-380.6152038574219	-0.0	-0.0	-0.0	-0.0	-0.0	-0.0	103169.2734375	-21137.724609375	568.3255004882812
0.0085	-0.0	-0.0	-0.0	1.567103624343872	53.399208068847656	-391.4833984375	0.4738989472389221	-59.54895782470703	-381.6227416992188	-0.0	-0.0	-0.0	-0.0	-0.0	-0.0	103359.5625	-21232.70703125	588.6395263671875
0.009000000000000001	-0.0	-0.0	-0.0	1.1597366333007812	53.794525146484375	-391.796142578125	0.4919496178627014	-59.59906005859375	-382.4797058105469	-0.0	-0.0	-0.0	-0.0	-0.0	-0.0	103789.1328125	-21831.703125	723.4424438476562
0.0095	-0.0	-0.0	-0.0	1.1497044563293457	53.73561096191406	-390.2638549804688	1.1231125593185425	-59.84377670288086	-384.3369140625	-0.0	-0.0	-0.0	-0.0	-0.0	-0.0	104030.6640625	-21887.55078125	707.6098022460938
0.01	-0.0	-0.0	-0.0	1.3873851299285889	53.73564910888672	-389.207275390625	0.6610010862350464	-60.74539566040039	-386.2798461914063	-0.0	-0.0	-0.0	-0.0	-0.0	-0.0	104441.890625	-22015.830078125	924.2518920898438
0.0105	-0.0	-0.0	-0.0	1.3775681257247925	53.5474739074707	-389.4786376953125	1.0645294189453125	-60.68692779541016	-387.51904296875	-0.0	-0.0	-0.0	-0.0	-0.0	-0.0	104666.5	-22213.533203125	1046.5797119140625
0.011	-0.0	-0.0	-0.0	1.2092528343200684	53.973365783691406	-388.8118591308594	1.4683449268341064	-61.5107650756836	-388.2956848144531	-0.0	-0.0	-0.0	-0.0	-0.0	-0.0	104874.3515625	-22436.1484375	1138.9959716796875
0.0115	-0.0	-0.0	-0.0	1.0606390237808228	53.71577072143555	-389.4792175292969	1.685504913330078	-61.56058883666992	-390.427978515625	-0.0	-0.0	-0.0	-0.0	-0.0	-0.0	105267.3828125	-22617.634765625	1353.4180908203125
0.012	-0.0	-0.0	-0.0	0.8521522283554077	53.70571517944336	-389.04827880859375	1.8333934545516968	-61.78596115112305	-389.6143798828125	-0.0	-0.0	-0.0	-0.0	-0.0	-0.0	105690.1015625	-22816.45703125	1383.1182861328125
0.0125	-0.0	-0.0	-0.0	0.8626598119735718	53.993412017822266	-389.5963439941406	2.405017852783203	-62.43365097045898	-390.35150146484375	-0.0	-0.0	-0.0	-0.0	-0.0	-0.0	105726.4375	-23030.310546875	1755.836669921875
0.013000000000000001	-0.0	-0.0	-0.0	0.6342522501945496	54.37931442260742	-390.0702819824219	2.671113967895508	-63.003196716308594	-391.1268615722656	-0.0	-0.0	-0.0	-0.0	-0.0	-0.0	105567.7109375	-22950.83203125	1785.5816650390625
0.0135	-0.0	-0.0	-0.0	0.3276122212409973	54.66765975952149	-389.9938354492188	3.00641131401062	-62.85499572753906	-391.2070007324219	-0.0	-0.0	-0.0	-0.0	-0.0	-0.0	105735.140625	-23190.59375	1825.343505859375
0.014	-0.0	-0.0	-0.0	0.296752005815506	54.92372512817383	-388.45220947265625	3.2531418800354004	-63.2286491394043	-391.1645812988281	-0.0	-0.0	-0.0	-0.0	-0.0	-0.0	105874.0859375	-23286.884765625	2029.8223876953125
0.0145	-0.0	-0.0	-0.0	0.4847341179847717	54.83452606201172	-390.1107177734375	3.666190624237061	-63.23832702636719	-391.90673828125	-0.0	-0.0	-0.0	-0.0	-0.0	-0.0	105632.8046875	-22960.271484375	2148.78173828125
0.015	-0.0	-0.0	-0.0	0.2362294644117355	55.152469635009766	-389.9487915039063	3.982337951660156	-63.689544677734375	-391.0118408203125	-0.0	-0.0	-0.0	-0.0	-0.0	-0.0	105384.484375	-23169.40234375	2141.82177734375
0.0155	-0.0	-0.0	-0.0	0.726108193397522	54.73565673828125	-389.9486389160156	3.675586700439453	-63.89705657958984	-390.6250305175781	-0.0	-0.0	-0.0	-0.0	-0.0	-0.0	105564.9453125	-23205.419921875	2353.079833984375
